<svg width="454" height="454" viewBox="0 0 454 454" fill="none" xmlns="http://www.w3.org/2000/svg">
<rect width="454" height="454" fill="#1E1E1E"/>
<circle cx="227" cy="227" r="227" fill="#888888"/>
<circle cx="227" cy="227" r="211" fill="#888888" fill-opacity="0.533333" stroke="black" stroke-width="2"/>
<rect width="1" height="1" transform="translate(15 439)" fill="white"/>
<mask id="path-3-outside-1_0_1" maskUnits="userSpaceOnUse" x="214" y="442" width="25" height="12" fill="black">
<rect fill="white" x="214" y="442" width="25" height="12"/>
<path d="M219.398 443.273H220.455V449.511C220.455 450.068 220.352 450.541 220.148 450.93C219.943 451.32 219.655 451.615 219.283 451.817C218.911 452.018 218.472 452.119 217.966 452.119C217.489 452.119 217.064 452.033 216.692 451.859C216.32 451.683 216.027 451.433 215.814 451.109C215.601 450.786 215.494 450.401 215.494 449.955H216.534C216.534 450.202 216.595 450.418 216.717 450.602C216.842 450.784 217.013 450.926 217.229 451.028C217.445 451.131 217.69 451.182 217.966 451.182C218.27 451.182 218.528 451.118 218.741 450.99C218.955 450.862 219.116 450.675 219.227 450.428C219.341 450.178 219.398 449.872 219.398 449.511V443.273ZM222.93 452H221.822L225.027 443.273H226.118L229.322 452H228.214L225.607 444.653H225.538L222.93 452ZM223.339 448.591H227.805V449.528H223.339V448.591ZM237.602 443.273V452H236.58L231.824 445.148H231.739V452H230.682V443.273H231.705L236.477 450.142H236.562V443.273H237.602Z"/>
</mask>
<path d="M219.398 443.273H220.455V449.511C220.455 450.068 220.352 450.541 220.148 450.93C219.943 451.32 219.655 451.615 219.283 451.817C218.911 452.018 218.472 452.119 217.966 452.119C217.489 452.119 217.064 452.033 216.692 451.859C216.32 451.683 216.027 451.433 215.814 451.109C215.601 450.786 215.494 450.401 215.494 449.955H216.534C216.534 450.202 216.595 450.418 216.717 450.602C216.842 450.784 217.013 450.926 217.229 451.028C217.445 451.131 217.69 451.182 217.966 451.182C218.27 451.182 218.528 451.118 218.741 450.99C218.955 450.862 219.116 450.675 219.227 450.428C219.341 450.178 219.398 449.872 219.398 449.511V443.273ZM222.93 452H221.822L225.027 443.273H226.118L229.322 452H228.214L225.607 444.653H225.538L222.93 452ZM223.339 448.591H227.805V449.528H223.339V448.591ZM237.602 443.273V452H236.58L231.824 445.148H231.739V452H230.682V443.273H231.705L236.477 450.142H236.562V443.273H237.602Z" fill="white"/>
<path d="M219.398 443.273V442.273H218.398V443.273H219.398ZM220.455 443.273H221.455V442.273H220.455V443.273ZM220.148 450.93L221.033 451.396V451.396L220.148 450.93ZM219.283 451.817L219.759 452.696H219.759L219.283 451.817ZM216.692 451.859L216.264 452.763L216.27 452.766L216.692 451.859ZM215.814 451.109L214.979 451.659H214.979L215.814 451.109ZM215.494 449.955V448.955H214.494V449.955H215.494ZM216.534 449.955H217.534V448.955H216.534V449.955ZM216.717 450.602L215.883 451.154L215.888 451.161L215.893 451.169L216.717 450.602ZM217.229 451.028L217.657 450.125V450.125L217.229 451.028ZM218.741 450.99L218.227 450.133H218.227L218.741 450.99ZM219.227 450.428L218.317 450.014L218.315 450.019L219.227 450.428ZM219.398 443.273V444.273H220.455V443.273V442.273H219.398V443.273ZM220.455 443.273H219.455V449.511H220.455H221.455V443.273H220.455ZM220.455 449.511H219.455C219.455 449.948 219.374 450.253 219.263 450.465L220.148 450.93L221.033 451.396C221.33 450.83 221.455 450.188 221.455 449.511H220.455ZM220.148 450.93L219.263 450.465C219.146 450.686 218.997 450.834 218.806 450.938L219.283 451.817L219.759 452.696C220.313 452.396 220.74 451.953 221.033 451.396L220.148 450.93ZM219.283 451.817L218.806 450.938C218.606 451.046 218.337 451.119 217.966 451.119V452.119V453.119C218.606 453.119 219.215 452.991 219.759 452.696L219.283 451.817ZM217.966 452.119V451.119C217.611 451.119 217.334 451.055 217.114 450.953L216.692 451.859L216.27 452.766C216.794 453.01 217.366 453.119 217.966 453.119V452.119ZM216.692 451.859L217.12 450.955C216.902 450.853 216.755 450.721 216.649 450.56L215.814 451.109L214.979 451.659C215.299 452.146 215.737 452.514 216.264 452.763L216.692 451.859ZM215.814 451.109L216.649 450.56C216.559 450.423 216.494 450.235 216.494 449.955H215.494H214.494C214.494 450.566 214.643 451.148 214.979 451.659L215.814 451.109ZM215.494 449.955V450.955H216.534V449.955V448.955H215.494V449.955ZM216.534 449.955H215.534C215.534 450.374 215.641 450.787 215.883 451.154L216.717 450.602L217.551 450.051C217.55 450.048 217.534 450.029 217.534 449.955H216.534ZM216.717 450.602L215.893 451.169C216.126 451.508 216.439 451.761 216.801 451.932L217.229 451.028L217.657 450.125C217.587 450.091 217.558 450.06 217.541 450.036L216.717 450.602ZM217.229 451.028L216.801 451.932C217.169 452.107 217.565 452.182 217.966 452.182V451.182V450.182C217.816 450.182 217.72 450.155 217.657 450.125L217.229 451.028ZM217.966 451.182V452.182C218.411 452.182 218.856 452.087 219.256 451.848L218.741 450.99L218.227 450.133C218.201 450.148 218.129 450.182 217.966 450.182V451.182ZM218.741 450.99L219.256 451.848C219.66 451.605 219.953 451.253 220.14 450.837L219.227 450.428L218.315 450.019C218.28 450.097 218.249 450.119 218.227 450.133L218.741 450.99ZM219.227 450.428L220.138 450.841C220.326 450.427 220.398 449.972 220.398 449.511H219.398H218.398C218.398 449.772 218.356 449.928 218.317 450.014L219.227 450.428ZM219.398 449.511H220.398V443.273H219.398H218.398V449.511H219.398ZM222.93 452V453H223.637L223.873 452.335L222.93 452ZM221.822 452L220.884 451.655L220.39 453H221.822V452ZM225.027 443.273V442.273H224.329L224.088 442.928L225.027 443.273ZM226.118 443.273L227.057 442.928L226.816 442.273H226.118V443.273ZM229.322 452V453H230.755L230.261 451.655L229.322 452ZM228.214 452L227.272 452.335L227.508 453H228.214V452ZM225.607 444.653L226.549 444.319L226.313 443.653H225.607V444.653ZM225.538 444.653V443.653H224.832L224.596 444.319L225.538 444.653ZM223.339 448.591V447.591H222.339V448.591H223.339ZM227.805 448.591H228.805V447.591H227.805V448.591ZM227.805 449.528V450.528H228.805V449.528H227.805ZM223.339 449.528H222.339V450.528H223.339V449.528ZM222.93 452V451H221.822V452V453H222.93V452ZM221.822 452L222.761 452.345L225.966 443.617L225.027 443.273L224.088 442.928L220.884 451.655L221.822 452ZM225.027 443.273V444.273H226.118V443.273V442.273H225.027V443.273ZM226.118 443.273L225.179 443.617L228.384 452.345L229.322 452L230.261 451.655L227.057 442.928L226.118 443.273ZM229.322 452V451H228.214V452V453H229.322V452ZM228.214 452L229.157 451.665L226.549 444.319L225.607 444.653L224.664 444.988L227.272 452.335L228.214 452ZM225.607 444.653V443.653H225.538V444.653V445.653H225.607V444.653ZM225.538 444.653L224.596 444.319L221.988 451.665L222.93 452L223.873 452.335L226.481 444.988L225.538 444.653ZM223.339 448.591V449.591H227.805V448.591V447.591H223.339V448.591ZM227.805 448.591H226.805V449.528H227.805H228.805V448.591H227.805ZM227.805 449.528V448.528H223.339V449.528V450.528H227.805V449.528ZM223.339 449.528H224.339V448.591H223.339H222.339V449.528H223.339ZM237.602 443.273H238.602V442.273H237.602V443.273ZM237.602 452V453H238.602V452H237.602ZM236.58 452L235.758 452.57L236.056 453H236.58V452ZM231.824 445.148L232.645 444.578L232.347 444.148H231.824V445.148ZM231.739 445.148V444.148H230.739V445.148H231.739ZM231.739 452V453H232.739V452H231.739ZM230.682 452H229.682V453H230.682V452ZM230.682 443.273V442.273H229.682V443.273H230.682ZM231.705 443.273L232.526 442.702L232.227 442.273H231.705V443.273ZM236.477 450.142L235.656 450.713L235.954 451.142H236.477V450.142ZM236.562 450.142V451.142H237.562V450.142H236.562ZM236.562 443.273V442.273H235.562V443.273H236.562ZM237.602 443.273H236.602V452H237.602H238.602V443.273H237.602ZM237.602 452V451H236.58V452V453H237.602V452ZM236.58 452L237.401 451.43L232.645 444.578L231.824 445.148L231.002 445.718L235.758 452.57L236.58 452ZM231.824 445.148V444.148H231.739V445.148V446.148H231.824V445.148ZM231.739 445.148H230.739V452H231.739H232.739V445.148H231.739ZM231.739 452V451H230.682V452V453H231.739V452ZM230.682 452H231.682V443.273H230.682H229.682V452H230.682ZM230.682 443.273V444.273H231.705V443.273V442.273H230.682V443.273ZM231.705 443.273L230.883 443.843L235.656 450.713L236.477 450.142L237.299 449.571L232.526 442.702L231.705 443.273ZM236.477 450.142V451.142H236.562V450.142V449.142H236.477V450.142ZM236.562 450.142H237.562V443.273H236.562H235.562V450.142H236.562ZM236.562 443.273V444.273H237.602V443.273V442.273H236.562V443.273Z" fill="black" mask="url(#path-3-outside-1_0_1)"/>
<circle cx="315" cy="219" r="114.5" fill="#878787" fill-opacity="0.533333" stroke="black"/>
<path d="M237.65 229.69C237.65 229.87 237.65 230.15 237.65 230.53C237.67 230.89 237.68 231.26 237.68 231.64C237.7 232.02 237.71 232.36 237.71 232.66C237.71 232.96 237.71 233.13 237.71 233.17C237.71 233.31 237.71 233.43 237.71 233.53C237.73 233.63 237.72 233.71 237.68 233.77C237.66 233.83 237.61 233.88 237.53 233.92C237.47 233.94 237.36 233.95 237.2 233.95C236.94 233.95 236.77 233.9 236.69 233.8C236.63 233.68 236.59 233.5 236.57 233.26C236.57 233.02 236.54 232.77 236.48 232.51C236.42 232.23 236.35 231.98 236.27 231.76C236.21 231.62 236.09 231.5 235.91 231.4C235.71 231.28 235.39 231.22 234.95 231.22H218.3C217.88 231.22 217.57 231.28 217.37 231.4C217.17 231.5 217.04 231.62 216.98 231.76C216.92 231.98 216.86 232.23 216.8 232.51C216.74 232.77 216.7 233.02 216.68 233.26C216.68 233.5 216.65 233.68 216.59 233.8C216.51 233.9 216.33 233.95 216.05 233.95C215.91 233.95 215.81 233.94 215.75 233.92C215.67 233.88 215.62 233.83 215.6 233.77C215.56 233.71 215.54 233.63 215.54 233.53C215.54 233.43 215.54 233.31 215.54 233.17C215.54 233.13 215.55 232.96 215.57 232.66C215.57 232.36 215.57 232.02 215.57 231.64C215.59 231.26 215.6 230.89 215.6 230.53C215.6 230.17 215.6 229.89 215.6 229.69C215.6 229.51 215.6 229.24 215.6 228.88C215.6 228.52 215.59 228.15 215.57 227.77C215.57 227.39 215.57 227.05 215.57 226.75C215.55 226.43 215.54 226.24 215.54 226.18C215.54 226.06 215.54 225.95 215.54 225.85C215.54 225.75 215.56 225.67 215.6 225.61C215.62 225.55 215.67 225.5 215.75 225.46C215.81 225.42 215.91 225.4 216.05 225.4C216.33 225.4 216.51 225.46 216.59 225.58C216.65 225.68 216.68 225.85 216.68 226.09C216.7 226.33 216.74 226.59 216.8 226.87C216.86 227.15 216.92 227.39 216.98 227.59C217.04 227.75 217.17 227.88 217.37 227.98C217.57 228.08 217.88 228.13 218.3 228.13H234.95C235.39 228.13 235.71 228.08 235.91 227.98C236.09 227.88 236.21 227.75 236.27 227.59C236.35 227.39 236.42 227.15 236.48 226.87C236.54 226.59 236.57 226.33 236.57 226.09C236.59 225.85 236.63 225.68 236.69 225.58C236.77 225.46 236.94 225.4 237.2 225.4C237.36 225.4 237.47 225.42 237.53 225.46C237.61 225.5 237.66 225.55 237.68 225.61C237.72 225.67 237.73 225.75 237.71 225.85C237.71 225.95 237.71 226.06 237.71 226.18C237.71 226.24 237.71 226.43 237.71 226.75C237.71 227.05 237.7 227.39 237.68 227.77C237.68 228.15 237.67 228.52 237.65 228.88C237.65 229.24 237.65 229.51 237.65 229.69ZM235.34 210.263L228.71 214.343L232.28 216.623C232.54 216.783 232.83 216.963 233.15 217.163C233.47 217.363 233.8 217.563 234.14 217.763C234.48 217.963 234.81 218.143 235.13 218.303C235.43 218.463 235.69 218.573 235.91 218.633C236.03 218.673 236.13 218.643 236.21 218.543C236.29 218.423 236.35 218.273 236.39 218.093C236.45 217.913 236.49 217.733 236.51 217.553C236.55 217.373 236.57 217.233 236.57 217.133C236.61 217.013 236.63 216.913 236.63 216.833C236.65 216.753 236.68 216.683 236.72 216.623C236.76 216.563 236.82 216.523 236.9 216.503C236.98 216.463 237.08 216.443 237.2 216.443C237.36 216.443 237.47 216.463 237.53 216.503C237.61 216.543 237.66 216.593 237.68 216.653C237.72 216.713 237.73 216.793 237.71 216.893C237.71 216.993 237.71 217.103 237.71 217.223C237.71 217.283 237.71 217.473 237.71 217.793C237.71 218.113 237.7 218.473 237.68 218.873C237.68 219.253 237.67 219.633 237.65 220.013C237.65 220.393 237.65 220.673 237.65 220.853C237.65 221.033 237.65 221.243 237.65 221.483C237.67 221.723 237.68 221.953 237.68 222.173C237.7 222.393 237.71 222.593 237.71 222.773C237.71 222.933 237.71 223.043 237.71 223.103C237.71 223.243 237.71 223.363 237.71 223.463C237.73 223.563 237.72 223.643 237.68 223.703C237.66 223.763 237.61 223.813 237.53 223.853C237.47 223.873 237.36 223.883 237.2 223.883C236.94 223.883 236.77 223.833 236.69 223.733C236.63 223.613 236.59 223.433 236.57 223.193C236.57 223.013 236.55 222.813 236.51 222.593C236.47 222.353 236.41 222.133 236.33 221.933C236.27 221.793 236.16 221.593 236 221.333C235.82 221.073 235.55 220.813 235.19 220.553C234.67 220.193 234.16 219.843 233.66 219.503C233.14 219.143 232.52 218.733 231.8 218.273L227.15 215.333L218.66 220.553C218.4 220.733 218.15 220.913 217.91 221.093C217.65 221.253 217.43 221.423 217.25 221.603C217.17 221.703 217.11 221.823 217.07 221.963C217.01 222.103 216.95 222.263 216.89 222.443C216.85 222.603 216.82 222.773 216.8 222.953C216.78 223.113 216.75 223.253 216.71 223.373C216.69 223.493 216.68 223.603 216.68 223.703C216.66 223.783 216.63 223.853 216.59 223.913C216.55 223.973 216.49 224.013 216.41 224.033C216.33 224.053 216.22 224.063 216.08 224.063C215.94 224.063 215.84 224.053 215.78 224.033C215.7 223.993 215.65 223.943 215.63 223.883C215.59 223.823 215.57 223.743 215.57 223.643C215.57 223.543 215.57 223.423 215.57 223.283C215.57 223.223 215.58 223.033 215.6 222.713C215.6 222.373 215.6 222.003 215.6 221.603C215.62 221.203 215.63 220.813 215.63 220.433C215.63 220.033 215.63 219.743 215.63 219.563C215.63 219.383 215.63 219.093 215.63 218.693C215.63 218.273 215.62 217.843 215.6 217.403C215.6 216.963 215.6 216.573 215.6 216.233C215.58 215.873 215.57 215.663 215.57 215.603C215.57 215.483 215.57 215.373 215.57 215.273C215.57 215.173 215.59 215.093 215.63 215.033C215.65 214.973 215.7 214.923 215.78 214.883C215.84 214.843 215.94 214.823 216.08 214.823C216.36 214.823 216.53 214.883 216.59 215.003C216.65 215.103 216.69 215.273 216.71 215.513C216.75 215.753 216.81 216.053 216.89 216.413C216.95 216.773 217.02 217.003 217.1 217.103C217.2 217.223 217.32 217.303 217.46 217.343C217.6 217.363 217.76 217.313 217.94 217.193L224.09 213.383L221 211.433C220.52 211.133 219.91 210.783 219.17 210.383C218.43 209.963 217.83 209.673 217.37 209.513C217.27 209.493 217.18 209.543 217.1 209.663C217.02 209.763 216.96 209.903 216.92 210.083C216.86 210.263 216.82 210.443 216.8 210.623C216.76 210.803 216.73 210.933 216.71 211.013C216.69 211.133 216.68 211.243 216.68 211.343C216.66 211.423 216.63 211.493 216.59 211.553C216.55 211.613 216.49 211.653 216.41 211.673C216.33 211.693 216.22 211.703 216.08 211.703C215.94 211.703 215.84 211.693 215.78 211.673C215.7 211.633 215.65 211.583 215.63 211.523C215.59 211.463 215.57 211.383 215.57 211.283C215.57 211.183 215.57 211.063 215.57 210.923C215.57 210.883 215.58 210.703 215.6 210.383C215.6 210.063 215.6 209.703 215.6 209.303C215.62 208.923 215.63 208.543 215.63 208.163C215.63 207.763 215.63 207.473 215.63 207.293C215.63 207.113 215.63 206.913 215.63 206.693C215.63 206.453 215.62 206.223 215.6 206.003C215.6 205.783 215.6 205.593 215.6 205.433C215.58 205.253 215.57 205.123 215.57 205.043C215.57 204.923 215.57 204.813 215.57 204.713C215.57 204.613 215.59 204.533 215.63 204.473C215.65 204.413 215.7 204.363 215.78 204.323C215.84 204.283 215.94 204.263 216.08 204.263C216.36 204.263 216.54 204.323 216.62 204.443C216.68 204.543 216.71 204.713 216.71 204.953C216.73 205.153 216.76 205.373 216.8 205.613C216.84 205.833 216.89 206.033 216.95 206.213C217.01 206.373 217.13 206.583 217.31 206.843C217.49 207.103 217.75 207.353 218.09 207.593C218.37 207.793 218.64 207.983 218.9 208.163C219.14 208.323 219.39 208.483 219.65 208.643C219.93 208.823 220.22 209.003 220.52 209.183C220.82 209.363 221.14 209.563 221.48 209.783L225.65 212.423L234.62 206.903C234.9 206.743 235.17 206.573 235.43 206.393C235.67 206.213 235.87 206.033 236.03 205.853C236.13 205.773 236.2 205.663 236.24 205.523C236.3 205.363 236.35 205.203 236.39 205.043C236.45 204.883 236.49 204.723 236.51 204.563C236.53 204.383 236.55 204.223 236.57 204.083C236.61 203.983 236.63 203.893 236.63 203.813C236.65 203.713 236.68 203.633 236.72 203.573C236.76 203.513 236.82 203.473 236.9 203.453C236.98 203.413 237.08 203.393 237.2 203.393C237.36 203.393 237.47 203.413 237.53 203.453C237.61 203.493 237.66 203.543 237.68 203.603C237.72 203.663 237.73 203.743 237.71 203.843C237.71 203.943 237.71 204.053 237.71 204.173C237.71 204.253 237.71 204.463 237.71 204.803C237.71 205.123 237.7 205.483 237.68 205.883C237.68 206.283 237.67 206.673 237.65 207.053C237.65 207.433 237.65 207.713 237.65 207.893C237.65 208.073 237.65 208.373 237.65 208.793C237.67 209.213 237.68 209.643 237.68 210.083C237.7 210.523 237.71 210.923 237.71 211.283C237.71 211.623 237.71 211.813 237.71 211.853C237.71 211.993 237.71 212.113 237.71 212.213C237.73 212.313 237.72 212.393 237.68 212.453C237.66 212.513 237.61 212.563 237.53 212.603C237.47 212.623 237.36 212.633 237.2 212.633C236.94 212.633 236.78 212.583 236.72 212.483C236.66 212.363 236.61 212.183 236.57 211.943C236.55 211.703 236.5 211.413 236.42 211.073C236.36 210.713 236.28 210.473 236.18 210.353C236.1 210.253 235.99 210.193 235.85 210.173C235.71 210.133 235.54 210.163 235.34 210.263Z" fill="white"/>
<path d="M416.65 229.69C416.65 229.87 416.65 230.15 416.65 230.53C416.67 230.89 416.68 231.26 416.68 231.64C416.7 232.02 416.71 232.36 416.71 232.66C416.71 232.96 416.71 233.13 416.71 233.17C416.71 233.31 416.71 233.43 416.71 233.53C416.73 233.63 416.72 233.71 416.68 233.77C416.66 233.83 416.61 233.88 416.53 233.92C416.47 233.94 416.36 233.95 416.2 233.95C415.94 233.95 415.77 233.9 415.69 233.8C415.63 233.68 415.59 233.5 415.57 233.26C415.57 233.02 415.54 232.77 415.48 232.51C415.42 232.23 415.35 231.98 415.27 231.76C415.21 231.62 415.09 231.5 414.91 231.4C414.71 231.28 414.39 231.22 413.95 231.22H397.3C396.88 231.22 396.57 231.28 396.37 231.4C396.17 231.5 396.04 231.62 395.98 231.76C395.92 231.98 395.86 232.23 395.8 232.51C395.74 232.77 395.7 233.02 395.68 233.26C395.68 233.5 395.65 233.68 395.59 233.8C395.51 233.9 395.33 233.95 395.05 233.95C394.91 233.95 394.81 233.94 394.75 233.92C394.67 233.88 394.62 233.83 394.6 233.77C394.56 233.71 394.54 233.63 394.54 233.53C394.54 233.43 394.54 233.31 394.54 233.17C394.54 233.13 394.55 232.96 394.57 232.66C394.57 232.36 394.57 232.02 394.57 231.64C394.59 231.26 394.6 230.89 394.6 230.53C394.6 230.17 394.6 229.89 394.6 229.69C394.6 229.51 394.6 229.24 394.6 228.88C394.6 228.52 394.59 228.15 394.57 227.77C394.57 227.39 394.57 227.05 394.57 226.75C394.55 226.43 394.54 226.24 394.54 226.18C394.54 226.06 394.54 225.95 394.54 225.85C394.54 225.75 394.56 225.67 394.6 225.61C394.62 225.55 394.67 225.5 394.75 225.46C394.81 225.42 394.91 225.4 395.05 225.4C395.33 225.4 395.51 225.46 395.59 225.58C395.65 225.68 395.68 225.85 395.68 226.09C395.7 226.33 395.74 226.59 395.8 226.87C395.86 227.15 395.92 227.39 395.98 227.59C396.04 227.75 396.17 227.88 396.37 227.98C396.57 228.08 396.88 228.13 397.3 228.13H413.95C414.39 228.13 414.71 228.08 414.91 227.98C415.09 227.88 415.21 227.75 415.27 227.59C415.35 227.39 415.42 227.15 415.48 226.87C415.54 226.59 415.57 226.33 415.57 226.09C415.59 225.85 415.63 225.68 415.69 225.58C415.77 225.46 415.94 225.4 416.2 225.4C416.36 225.4 416.47 225.42 416.53 225.46C416.61 225.5 416.66 225.55 416.68 225.61C416.72 225.67 416.73 225.75 416.71 225.85C416.71 225.95 416.71 226.06 416.71 226.18C416.71 226.24 416.71 226.43 416.71 226.75C416.71 227.05 416.7 227.39 416.68 227.77C416.68 228.15 416.67 228.52 416.65 228.88C416.65 229.24 416.65 229.51 416.65 229.69ZM416.65 219.143C416.65 219.323 416.65 219.603 416.65 219.983C416.67 220.343 416.68 220.713 416.68 221.093C416.7 221.473 416.71 221.813 416.71 222.113C416.71 222.413 416.71 222.583 416.71 222.623C416.71 222.763 416.71 222.883 416.71 222.983C416.73 223.083 416.72 223.163 416.68 223.223C416.66 223.283 416.61 223.333 416.53 223.373C416.47 223.393 416.36 223.403 416.2 223.403C415.94 223.403 415.77 223.353 415.69 223.253C415.63 223.133 415.59 222.953 415.57 222.713C415.57 222.473 415.54 222.223 415.48 221.963C415.42 221.683 415.35 221.433 415.27 221.213C415.21 221.073 415.09 220.953 414.91 220.853C414.71 220.733 414.39 220.673 413.95 220.673H397.3C396.88 220.673 396.57 220.733 396.37 220.853C396.17 220.953 396.04 221.073 395.98 221.213C395.92 221.433 395.86 221.683 395.8 221.963C395.74 222.223 395.7 222.473 395.68 222.713C395.68 222.953 395.65 223.133 395.59 223.253C395.51 223.353 395.33 223.403 395.05 223.403C394.91 223.403 394.81 223.393 394.75 223.373C394.67 223.333 394.62 223.283 394.6 223.223C394.56 223.163 394.54 223.083 394.54 222.983C394.54 222.883 394.54 222.763 394.54 222.623C394.54 222.583 394.55 222.413 394.57 222.113C394.57 221.813 394.57 221.473 394.57 221.093C394.59 220.713 394.6 220.343 394.6 219.983C394.6 219.623 394.6 219.343 394.6 219.143C394.6 218.963 394.6 218.693 394.6 218.333C394.6 217.973 394.59 217.603 394.57 217.223C394.57 216.843 394.57 216.503 394.57 216.203C394.55 215.883 394.54 215.693 394.54 215.633C394.54 215.513 394.54 215.403 394.54 215.303C394.54 215.203 394.56 215.123 394.6 215.063C394.62 215.003 394.67 214.953 394.75 214.913C394.81 214.873 394.91 214.853 395.05 214.853C395.33 214.853 395.51 214.913 395.59 215.033C395.65 215.133 395.68 215.303 395.68 215.543C395.7 215.783 395.74 216.043 395.8 216.323C395.86 216.603 395.92 216.843 395.98 217.043C396.04 217.203 396.17 217.333 396.37 217.433C396.57 217.533 396.88 217.583 397.3 217.583H413.95C414.39 217.583 414.71 217.533 414.91 217.433C415.09 217.333 415.21 217.203 415.27 217.043C415.35 216.843 415.42 216.603 415.48 216.323C415.54 216.043 415.57 215.783 415.57 215.543C415.59 215.303 415.63 215.133 415.69 215.033C415.77 214.913 415.94 214.853 416.2 214.853C416.36 214.853 416.47 214.873 416.53 214.913C416.61 214.953 416.66 215.003 416.68 215.063C416.72 215.123 416.73 215.203 416.71 215.303C416.71 215.403 416.71 215.513 416.71 215.633C416.71 215.693 416.71 215.883 416.71 216.203C416.71 216.503 416.7 216.843 416.68 217.223C416.68 217.603 416.67 217.973 416.65 218.333C416.65 218.693 416.65 218.963 416.65 219.143ZM416.65 208.596C416.65 208.776 416.65 209.056 416.65 209.436C416.67 209.796 416.68 210.166 416.68 210.546C416.7 210.926 416.71 211.266 416.71 211.566C416.71 211.866 416.71 212.036 416.71 212.076C416.71 212.216 416.71 212.336 416.71 212.436C416.73 212.536 416.72 212.616 416.68 212.676C416.66 212.736 416.61 212.786 416.53 212.826C416.47 212.846 416.36 212.856 416.2 212.856C415.94 212.856 415.77 212.806 415.69 212.706C415.63 212.586 415.59 212.406 415.57 212.166C415.57 211.926 415.54 211.676 415.48 211.416C415.42 211.136 415.35 210.886 415.27 210.666C415.21 210.526 415.09 210.406 414.91 210.306C414.71 210.186 414.39 210.126 413.95 210.126H397.3C396.88 210.126 396.57 210.186 396.37 210.306C396.17 210.406 396.04 210.526 395.98 210.666C395.92 210.886 395.86 211.136 395.8 211.416C395.74 211.676 395.7 211.926 395.68 212.166C395.68 212.406 395.65 212.586 395.59 212.706C395.51 212.806 395.33 212.856 395.05 212.856C394.91 212.856 394.81 212.846 394.75 212.826C394.67 212.786 394.62 212.736 394.6 212.676C394.56 212.616 394.54 212.536 394.54 212.436C394.54 212.336 394.54 212.216 394.54 212.076C394.54 212.036 394.55 211.866 394.57 211.566C394.57 211.266 394.57 210.926 394.57 210.546C394.59 210.166 394.6 209.796 394.6 209.436C394.6 209.076 394.6 208.796 394.6 208.596C394.6 208.416 394.6 208.146 394.6 207.786C394.6 207.426 394.59 207.056 394.57 206.676C394.57 206.296 394.57 205.956 394.57 205.656C394.55 205.336 394.54 205.146 394.54 205.086C394.54 204.966 394.54 204.856 394.54 204.756C394.54 204.656 394.56 204.576 394.6 204.516C394.62 204.456 394.67 204.406 394.75 204.366C394.81 204.326 394.91 204.306 395.05 204.306C395.33 204.306 395.51 204.366 395.59 204.486C395.65 204.586 395.68 204.756 395.68 204.996C395.7 205.236 395.74 205.496 395.8 205.776C395.86 206.056 395.92 206.296 395.98 206.496C396.04 206.656 396.17 206.786 396.37 206.886C396.57 206.986 396.88 207.036 397.3 207.036H413.95C414.39 207.036 414.71 206.986 414.91 206.886C415.09 206.786 415.21 206.656 415.27 206.496C415.35 206.296 415.42 206.056 415.48 205.776C415.54 205.496 415.57 205.236 415.57 204.996C415.59 204.756 415.63 204.586 415.69 204.486C415.77 204.366 415.94 204.306 416.2 204.306C416.36 204.306 416.47 204.326 416.53 204.366C416.61 204.406 416.66 204.456 416.68 204.516C416.72 204.576 416.73 204.656 416.71 204.756C416.71 204.856 416.71 204.966 416.71 205.086C416.71 205.146 416.71 205.336 416.71 205.656C416.71 205.956 416.7 206.296 416.68 206.676C416.68 207.056 416.67 207.426 416.65 207.786C416.65 208.146 416.65 208.416 416.65 208.596Z" fill="white"/>
<path d="M315.49 308.67L320.02 295.41C320.2 294.87 320.42 294.6 320.68 294.6C320.94 294.58 321.15 294.86 321.31 295.44L328 314.34C328.12 314.6 328.24 314.84 328.36 315.06C328.46 315.3 328.6 315.51 328.78 315.69C328.96 315.85 329.18 315.97 329.44 316.05C329.7 316.15 329.96 316.23 330.22 316.29C330.34 316.31 330.45 316.32 330.55 316.32C330.63 316.34 330.7 316.37 330.76 316.41C330.82 316.45 330.86 316.51 330.88 316.59C330.9 316.67 330.91 316.78 330.91 316.92C330.91 317.06 330.9 317.16 330.88 317.22C330.84 317.3 330.79 317.35 330.73 317.37C330.67 317.41 330.59 317.43 330.49 317.43C330.39 317.43 330.27 317.43 330.13 317.43C330.07 317.43 329.91 317.42 329.65 317.4C329.39 317.4 329.09 317.4 328.75 317.4C328.43 317.38 328.11 317.37 327.79 317.37C327.45 317.37 327.19 317.37 327.01 317.37C326.83 317.37 326.58 317.37 326.26 317.37C325.94 317.37 325.62 317.38 325.3 317.4C324.96 317.4 324.66 317.4 324.4 317.4C324.14 317.42 323.98 317.43 323.92 317.43C323.8 317.43 323.69 317.43 323.59 317.43C323.49 317.43 323.41 317.41 323.35 317.37C323.29 317.35 323.24 317.3 323.2 317.22C323.16 317.16 323.14 317.06 323.14 316.92C323.14 316.64 323.2 316.47 323.32 316.41C323.42 316.35 323.59 316.31 323.83 316.29C324.07 316.25 324.26 316.2 324.4 316.14C324.54 316.1 324.66 316.04 324.76 315.96C324.88 315.86 324.94 315.75 324.94 315.63C324.92 315.51 324.88 315.37 324.82 315.21L319.81 301.41L317.2 308.91C316.8 310.03 316.44 311.13 316.12 312.21C315.78 313.29 315.49 314.31 315.25 315.27C315.23 315.47 315.27 315.63 315.37 315.75C315.45 315.87 315.57 315.97 315.73 316.05C315.85 316.11 316 316.15 316.18 316.17C316.34 316.21 316.51 316.25 316.69 316.29C316.81 316.31 316.92 316.32 317.02 316.32C317.1 316.34 317.17 316.37 317.23 316.41C317.29 316.45 317.33 316.51 317.35 316.59C317.37 316.67 317.38 316.78 317.38 316.92C317.38 317.06 317.37 317.16 317.35 317.22C317.31 317.3 317.26 317.35 317.2 317.37C317.14 317.41 317.06 317.43 316.96 317.43C316.86 317.43 316.74 317.43 316.6 317.43C316.56 317.43 316.41 317.42 316.15 317.4C315.87 317.4 315.57 317.4 315.25 317.4C314.91 317.38 314.58 317.37 314.26 317.37C313.92 317.37 313.66 317.37 313.48 317.37C313.3 317.37 313.1 317.37 312.88 317.37C312.64 317.37 312.41 317.38 312.19 317.4C311.97 317.4 311.78 317.4 311.62 317.4C311.44 317.42 311.31 317.43 311.23 317.43C311.11 317.43 311 317.43 310.9 317.43C310.8 317.43 310.72 317.41 310.66 317.37C310.6 317.35 310.55 317.3 310.51 317.22C310.47 317.16 310.45 317.06 310.45 316.92C310.45 316.64 310.51 316.46 310.63 316.38C310.73 316.32 310.9 316.29 311.14 316.29C311.34 316.27 311.54 316.23 311.74 316.17C311.92 316.13 312.1 316.07 312.28 315.99C312.44 315.91 312.62 315.75 312.82 315.51C313 315.27 313.16 314.95 313.3 314.55C313.46 314.13 313.64 313.68 313.84 313.2C314.02 312.72 314.2 312.23 314.38 311.73C314.58 311.23 314.78 310.72 314.98 310.2C315.16 309.68 315.33 309.17 315.49 308.67ZM305.124 295.35C305.304 295.35 305.584 295.35 305.964 295.35C306.324 295.33 306.694 295.32 307.074 295.32C307.454 295.3 307.794 295.29 308.094 295.29C308.394 295.29 308.564 295.29 308.604 295.29C308.744 295.29 308.864 295.29 308.964 295.29C309.064 295.27 309.144 295.28 309.204 295.32C309.264 295.34 309.314 295.39 309.354 295.47C309.374 295.53 309.384 295.64 309.384 295.8C309.384 296.06 309.334 296.23 309.234 296.31C309.114 296.37 308.934 296.41 308.694 296.43C308.454 296.43 308.204 296.46 307.944 296.52C307.664 296.58 307.414 296.65 307.194 296.73C307.054 296.79 306.934 296.91 306.834 297.09C306.714 297.29 306.654 297.61 306.654 298.05V314.7C306.654 315.12 306.714 315.43 306.834 315.63C306.934 315.83 307.054 315.96 307.194 316.02C307.414 316.08 307.664 316.14 307.944 316.2C308.204 316.26 308.454 316.3 308.694 316.32C308.934 316.32 309.114 316.35 309.234 316.41C309.334 316.49 309.384 316.67 309.384 316.95C309.384 317.09 309.374 317.19 309.354 317.25C309.314 317.33 309.264 317.38 309.204 317.4C309.144 317.44 309.064 317.46 308.964 317.46C308.864 317.46 308.744 317.46 308.604 317.46C308.564 317.46 308.394 317.45 308.094 317.43C307.794 317.43 307.454 317.43 307.074 317.43C306.694 317.41 306.324 317.4 305.964 317.4C305.604 317.4 305.324 317.4 305.124 317.4C304.944 317.4 304.674 317.4 304.314 317.4C303.954 317.4 303.584 317.41 303.204 317.43C302.824 317.43 302.484 317.43 302.184 317.43C301.864 317.45 301.674 317.46 301.614 317.46C301.494 317.46 301.384 317.46 301.284 317.46C301.184 317.46 301.104 317.44 301.044 317.4C300.984 317.38 300.934 317.33 300.894 317.25C300.854 317.19 300.834 317.09 300.834 316.95C300.834 316.67 300.894 316.49 301.014 316.41C301.114 316.35 301.284 316.32 301.524 316.32C301.764 316.3 302.024 316.26 302.304 316.2C302.584 316.14 302.824 316.08 303.024 316.02C303.184 315.96 303.314 315.83 303.414 315.63C303.514 315.43 303.564 315.12 303.564 314.7V298.05C303.564 297.61 303.514 297.29 303.414 297.09C303.314 296.91 303.184 296.79 303.024 296.73C302.824 296.65 302.584 296.58 302.304 296.52C302.024 296.46 301.764 296.43 301.524 296.43C301.284 296.41 301.114 296.37 301.014 296.31C300.894 296.23 300.834 296.06 300.834 295.8C300.834 295.64 300.854 295.53 300.894 295.47C300.934 295.39 300.984 295.34 301.044 295.32C301.104 295.28 301.184 295.27 301.284 295.29C301.384 295.29 301.494 295.29 301.614 295.29C301.674 295.29 301.864 295.29 302.184 295.29C302.484 295.29 302.824 295.3 303.204 295.32C303.584 295.32 303.954 295.33 304.314 295.35C304.674 295.35 304.944 295.35 305.124 295.35Z" fill="white"/>
<path d="M307.19 139.34L303.11 132.71L300.83 136.28C300.67 136.54 300.49 136.83 300.29 137.15C300.09 137.47 299.89 137.8 299.69 138.14C299.49 138.48 299.31 138.81 299.15 139.13C298.99 139.43 298.88 139.69 298.82 139.91C298.78 140.03 298.81 140.13 298.91 140.21C299.03 140.29 299.18 140.35 299.36 140.39C299.54 140.45 299.72 140.49 299.9 140.51C300.08 140.55 300.22 140.57 300.32 140.57C300.44 140.61 300.54 140.63 300.62 140.63C300.7 140.65 300.77 140.68 300.83 140.72C300.89 140.76 300.93 140.82 300.95 140.9C300.99 140.98 301.01 141.08 301.01 141.2C301.01 141.36 300.99 141.47 300.95 141.53C300.91 141.61 300.86 141.66 300.8 141.68C300.74 141.72 300.66 141.73 300.56 141.71C300.46 141.71 300.35 141.71 300.23 141.71C300.17 141.71 299.98 141.71 299.66 141.71C299.34 141.71 298.98 141.7 298.58 141.68C298.2 141.68 297.82 141.67 297.44 141.65C297.06 141.65 296.78 141.65 296.6 141.65C296.42 141.65 296.21 141.65 295.97 141.65C295.73 141.67 295.5 141.68 295.28 141.68C295.06 141.7 294.86 141.71 294.68 141.71C294.52 141.71 294.41 141.71 294.35 141.71C294.21 141.71 294.09 141.71 293.99 141.71C293.89 141.73 293.81 141.72 293.75 141.68C293.69 141.66 293.64 141.61 293.6 141.53C293.58 141.47 293.57 141.36 293.57 141.2C293.57 140.94 293.62 140.77 293.72 140.69C293.84 140.63 294.02 140.59 294.26 140.57C294.44 140.57 294.64 140.55 294.86 140.51C295.1 140.47 295.32 140.41 295.52 140.33C295.66 140.27 295.86 140.16 296.12 140C296.38 139.82 296.64 139.55 296.9 139.19C297.26 138.67 297.61 138.16 297.95 137.66C298.31 137.14 298.72 136.52 299.18 135.8L302.12 131.15L296.9 122.66C296.72 122.4 296.54 122.15 296.36 121.91C296.2 121.65 296.03 121.43 295.85 121.25C295.75 121.17 295.63 121.11 295.49 121.07C295.35 121.01 295.19 120.95 295.01 120.89C294.85 120.85 294.68 120.82 294.5 120.8C294.34 120.78 294.2 120.75 294.08 120.71C293.96 120.69 293.85 120.68 293.75 120.68C293.67 120.66 293.6 120.63 293.54 120.59C293.48 120.55 293.44 120.49 293.42 120.41C293.4 120.33 293.39 120.22 293.39 120.08C293.39 119.94 293.4 119.84 293.42 119.78C293.46 119.7 293.51 119.65 293.57 119.63C293.63 119.59 293.71 119.57 293.81 119.57C293.91 119.57 294.03 119.57 294.17 119.57C294.23 119.57 294.42 119.58 294.74 119.6C295.08 119.6 295.45 119.6 295.85 119.6C296.25 119.62 296.64 119.63 297.02 119.63C297.42 119.63 297.71 119.63 297.89 119.63C298.07 119.63 298.36 119.63 298.76 119.63C299.18 119.63 299.61 119.62 300.05 119.6C300.49 119.6 300.88 119.6 301.22 119.6C301.58 119.58 301.79 119.57 301.85 119.57C301.97 119.57 302.08 119.57 302.18 119.57C302.28 119.57 302.36 119.59 302.42 119.63C302.48 119.65 302.53 119.7 302.57 119.78C302.61 119.84 302.63 119.94 302.63 120.08C302.63 120.36 302.57 120.53 302.45 120.59C302.35 120.65 302.18 120.69 301.94 120.71C301.7 120.75 301.4 120.81 301.04 120.89C300.68 120.95 300.45 121.02 300.35 121.1C300.23 121.2 300.15 121.32 300.11 121.46C300.09 121.6 300.14 121.76 300.26 121.94L304.07 128.09L306.02 125C306.32 124.52 306.67 123.91 307.07 123.17C307.49 122.43 307.78 121.83 307.94 121.37C307.96 121.27 307.91 121.18 307.79 121.1C307.69 121.02 307.55 120.96 307.37 120.92C307.19 120.86 307.01 120.82 306.83 120.8C306.65 120.76 306.52 120.73 306.44 120.71C306.32 120.69 306.21 120.68 306.11 120.68C306.03 120.66 305.96 120.63 305.9 120.59C305.84 120.55 305.8 120.49 305.78 120.41C305.76 120.33 305.75 120.22 305.75 120.08C305.75 119.94 305.76 119.84 305.78 119.78C305.82 119.7 305.87 119.65 305.93 119.63C305.99 119.59 306.07 119.57 306.17 119.57C306.27 119.57 306.39 119.57 306.53 119.57C306.57 119.57 306.75 119.58 307.07 119.6C307.39 119.6 307.75 119.6 308.15 119.6C308.53 119.62 308.91 119.63 309.29 119.63C309.69 119.63 309.98 119.63 310.16 119.63C310.34 119.63 310.54 119.63 310.76 119.63C311 119.63 311.23 119.62 311.45 119.6C311.67 119.6 311.86 119.6 312.02 119.6C312.2 119.58 312.33 119.57 312.41 119.57C312.53 119.57 312.64 119.57 312.74 119.57C312.84 119.57 312.92 119.59 312.98 119.63C313.04 119.65 313.09 119.7 313.13 119.78C313.17 119.84 313.19 119.94 313.19 120.08C313.19 120.36 313.13 120.54 313.01 120.62C312.91 120.68 312.74 120.71 312.5 120.71C312.3 120.73 312.08 120.76 311.84 120.8C311.62 120.84 311.42 120.89 311.24 120.95C311.08 121.01 310.87 121.13 310.61 121.31C310.35 121.49 310.1 121.75 309.86 122.09C309.66 122.37 309.47 122.64 309.29 122.9C309.13 123.14 308.97 123.39 308.81 123.65C308.63 123.93 308.45 124.22 308.27 124.52C308.09 124.82 307.89 125.14 307.67 125.48L305.03 129.65L310.55 138.62C310.71 138.9 310.88 139.17 311.06 139.43C311.24 139.67 311.42 139.87 311.6 140.03C311.68 140.13 311.79 140.2 311.93 140.24C312.09 140.3 312.25 140.35 312.41 140.39C312.57 140.45 312.73 140.49 312.89 140.51C313.07 140.53 313.23 140.55 313.37 140.57C313.47 140.61 313.56 140.63 313.64 140.63C313.74 140.65 313.82 140.68 313.88 140.72C313.94 140.76 313.98 140.82 314 140.9C314.04 140.98 314.06 141.08 314.06 141.2C314.06 141.36 314.04 141.47 314 141.53C313.96 141.61 313.91 141.66 313.85 141.68C313.79 141.72 313.71 141.73 313.61 141.71C313.51 141.71 313.4 141.71 313.28 141.71C313.2 141.71 312.99 141.71 312.65 141.71C312.33 141.71 311.97 141.7 311.57 141.68C311.17 141.68 310.78 141.67 310.4 141.65C310.02 141.65 309.74 141.65 309.56 141.65C309.38 141.65 309.08 141.65 308.66 141.65C308.24 141.67 307.81 141.68 307.37 141.68C306.93 141.7 306.53 141.71 306.17 141.71C305.83 141.71 305.64 141.71 305.6 141.71C305.46 141.71 305.34 141.71 305.24 141.71C305.14 141.73 305.06 141.72 305 141.68C304.94 141.66 304.89 141.61 304.85 141.53C304.83 141.47 304.82 141.36 304.82 141.2C304.82 140.94 304.87 140.78 304.97 140.72C305.09 140.66 305.27 140.61 305.51 140.57C305.75 140.55 306.04 140.5 306.38 140.42C306.74 140.36 306.98 140.28 307.1 140.18C307.2 140.1 307.26 139.99 307.28 139.85C307.32 139.71 307.29 139.54 307.19 139.34ZM319.55 141.65C319.37 141.65 319.09 141.65 318.71 141.65C318.35 141.67 317.98 141.68 317.6 141.68C317.22 141.7 316.88 141.71 316.58 141.71C316.28 141.71 316.11 141.71 316.07 141.71C315.93 141.71 315.81 141.71 315.71 141.71C315.61 141.73 315.53 141.72 315.47 141.68C315.41 141.66 315.36 141.61 315.32 141.53C315.3 141.47 315.29 141.36 315.29 141.2C315.29 140.94 315.34 140.77 315.44 140.69C315.56 140.63 315.74 140.59 315.98 140.57C316.22 140.57 316.47 140.54 316.73 140.48C317.01 140.42 317.26 140.35 317.48 140.27C317.62 140.21 317.74 140.09 317.84 139.91C317.96 139.71 318.02 139.39 318.02 138.95V122.3C318.02 121.88 317.96 121.57 317.84 121.37C317.74 121.17 317.62 121.04 317.48 120.98C317.26 120.92 317.01 120.86 316.73 120.8C316.47 120.74 316.22 120.7 315.98 120.68C315.74 120.68 315.56 120.65 315.44 120.59C315.34 120.51 315.29 120.33 315.29 120.05C315.29 119.91 315.3 119.81 315.32 119.75C315.36 119.67 315.41 119.62 315.47 119.6C315.53 119.56 315.61 119.54 315.71 119.54C315.81 119.54 315.93 119.54 316.07 119.54C316.11 119.54 316.28 119.55 316.58 119.57C316.88 119.57 317.22 119.57 317.6 119.57C317.98 119.59 318.35 119.6 318.71 119.6C319.07 119.6 319.35 119.6 319.55 119.6C319.73 119.6 320 119.6 320.36 119.6C320.72 119.6 321.09 119.59 321.47 119.57C321.85 119.57 322.19 119.57 322.49 119.57C322.81 119.55 323 119.54 323.06 119.54C323.18 119.54 323.29 119.54 323.39 119.54C323.49 119.54 323.57 119.56 323.63 119.6C323.69 119.62 323.74 119.67 323.78 119.75C323.82 119.81 323.84 119.91 323.84 120.05C323.84 120.33 323.78 120.51 323.66 120.59C323.56 120.65 323.39 120.68 323.15 120.68C322.91 120.7 322.65 120.74 322.37 120.8C322.09 120.86 321.85 120.92 321.65 120.98C321.49 121.04 321.36 121.17 321.26 121.37C321.16 121.57 321.11 121.88 321.11 122.3V138.95C321.11 139.39 321.16 139.71 321.26 139.91C321.36 140.09 321.49 140.21 321.65 140.27C321.85 140.35 322.09 140.42 322.37 140.48C322.65 140.54 322.91 140.57 323.15 140.57C323.39 140.59 323.56 140.63 323.66 140.69C323.78 140.77 323.84 140.94 323.84 141.2C323.84 141.36 323.82 141.47 323.78 141.53C323.74 141.61 323.69 141.66 323.63 141.68C323.57 141.72 323.49 141.73 323.39 141.71C323.29 141.71 323.18 141.71 323.06 141.71C323 141.71 322.81 141.71 322.49 141.71C322.19 141.71 321.85 141.7 321.47 141.68C321.09 141.68 320.72 141.67 320.36 141.65C320 141.65 319.73 141.65 319.55 141.65ZM330.097 141.65C329.917 141.65 329.637 141.65 329.257 141.65C328.897 141.67 328.527 141.68 328.147 141.68C327.767 141.7 327.427 141.71 327.127 141.71C326.827 141.71 326.657 141.71 326.617 141.71C326.477 141.71 326.357 141.71 326.257 141.71C326.157 141.73 326.077 141.72 326.017 141.68C325.957 141.66 325.907 141.61 325.867 141.53C325.847 141.47 325.837 141.36 325.837 141.2C325.837 140.94 325.887 140.77 325.987 140.69C326.107 140.63 326.287 140.59 326.527 140.57C326.767 140.57 327.017 140.54 327.277 140.48C327.557 140.42 327.807 140.35 328.027 140.27C328.167 140.21 328.287 140.09 328.387 139.91C328.507 139.71 328.567 139.39 328.567 138.95V122.3C328.567 121.88 328.507 121.57 328.387 121.37C328.287 121.17 328.167 121.04 328.027 120.98C327.807 120.92 327.557 120.86 327.277 120.8C327.017 120.74 326.767 120.7 326.527 120.68C326.287 120.68 326.107 120.65 325.987 120.59C325.887 120.51 325.837 120.33 325.837 120.05C325.837 119.91 325.847 119.81 325.867 119.75C325.907 119.67 325.957 119.62 326.017 119.6C326.077 119.56 326.157 119.54 326.257 119.54C326.357 119.54 326.477 119.54 326.617 119.54C326.657 119.54 326.827 119.55 327.127 119.57C327.427 119.57 327.767 119.57 328.147 119.57C328.527 119.59 328.897 119.6 329.257 119.6C329.617 119.6 329.897 119.6 330.097 119.6C330.277 119.6 330.547 119.6 330.907 119.6C331.267 119.6 331.637 119.59 332.017 119.57C332.397 119.57 332.737 119.57 333.037 119.57C333.357 119.55 333.547 119.54 333.607 119.54C333.727 119.54 333.837 119.54 333.937 119.54C334.037 119.54 334.117 119.56 334.177 119.6C334.237 119.62 334.287 119.67 334.327 119.75C334.367 119.81 334.387 119.91 334.387 120.05C334.387 120.33 334.327 120.51 334.207 120.59C334.107 120.65 333.937 120.68 333.697 120.68C333.457 120.7 333.197 120.74 332.917 120.8C332.637 120.86 332.397 120.92 332.197 120.98C332.037 121.04 331.907 121.17 331.807 121.37C331.707 121.57 331.657 121.88 331.657 122.3V138.95C331.657 139.39 331.707 139.71 331.807 139.91C331.907 140.09 332.037 140.21 332.197 140.27C332.397 140.35 332.637 140.42 332.917 140.48C333.197 140.54 333.457 140.57 333.697 140.57C333.937 140.59 334.107 140.63 334.207 140.69C334.327 140.77 334.387 140.94 334.387 141.2C334.387 141.36 334.367 141.47 334.327 141.53C334.287 141.61 334.237 141.66 334.177 141.68C334.117 141.72 334.037 141.73 333.937 141.71C333.837 141.71 333.727 141.71 333.607 141.71C333.547 141.71 333.357 141.71 333.037 141.71C332.737 141.71 332.397 141.7 332.017 141.68C331.637 141.68 331.267 141.67 330.907 141.65C330.547 141.65 330.277 141.65 330.097 141.65Z" fill="white"/>
<circle cx="315" cy="219" r="69.5" fill="#777777" fill-opacity="0.466667" stroke="black"/>
<circle cx="112.5" cy="294.5" r="67.5" fill="#D9D9D9"/>
<rect x="139.5" y="60.5" width="39" height="42" fill="#D9D9D9" stroke="black" stroke-width="3"/>
<path d="M217.5 60.5V102.5H178.5V60.5H217.5Z" fill="#D9D9D9" stroke="black" stroke-width="3"/>
<circle cx="106.5" cy="159.5" r="55.5" fill="#D9D9D9"/>
<circle cx="227" cy="362" r="50" fill="#D9D9D9"/>
<path d="M229 436L220.34 418H237.66L229 436Z" fill="#D9D9D9"/>
<path d="M365.721 218.693C366.104 218.295 366.091 217.662 365.693 217.279L359.203 211.043C358.805 210.661 358.172 210.673 357.789 211.072C357.406 211.47 357.419 212.103 357.817 212.486L363.586 218.028L358.043 223.797C357.661 224.195 357.673 224.828 358.072 225.211C358.47 225.594 359.103 225.581 359.486 225.183L365.721 218.693ZM315 219L315.02 220L365.02 219L365 218L364.98 217L314.98 218L315 219Z" fill="white"/>
<path d="M356.307 139.692C356.137 139.167 355.573 138.878 355.047 139.049L346.485 141.821C345.959 141.991 345.671 142.555 345.842 143.08C346.012 143.606 346.576 143.894 347.101 143.724L354.712 141.259L357.176 148.87C357.346 149.396 357.91 149.684 358.436 149.514C358.961 149.344 359.249 148.78 359.079 148.254L356.307 139.692ZM315 219L315.891 219.455L356.246 140.455L355.355 140L354.465 139.545L314.109 218.545L315 219Z" fill="white"/>
<mask id="mask0_0_1" style="mask-type:alpha" maskUnits="userSpaceOnUse" x="17" y="17" width="420" height="420">
<circle cx="227" cy="227" r="204" stroke="black" stroke-width="12"/>
</mask>
<g mask="url(#mask0_0_1)">
<path d="M23.3084 271.32C13.7469 224.847 20.2046 176.506 41.6294 134.172C63.0543 91.8389 98.1834 58.0082 141.294 38.1923C184.404 18.3764 232.954 13.7431 279.034 25.0475C325.114 36.3518 366.007 62.9274 395.053 100.444L229 229L23.3084 271.32Z" fill="#444444"/>
</g>
<path d="M226.602 10.7273H225.545V4.48864C225.545 3.93182 225.648 3.45881 225.852 3.0696C226.057 2.6804 226.345 2.38494 226.717 2.18324C227.089 1.98153 227.528 1.88068 228.034 1.88068C228.511 1.88068 228.936 1.96733 229.308 2.14062C229.68 2.31676 229.973 2.56676 230.186 2.89062C230.399 3.21449 230.506 3.59943 230.506 4.04545H229.466C229.466 3.7983 229.405 3.58239 229.283 3.39773C229.158 3.21591 228.987 3.07386 228.771 2.97159C228.555 2.86932 228.31 2.81818 228.034 2.81818C227.73 2.81818 227.472 2.8821 227.259 3.00994C227.045 3.13778 226.884 3.32528 226.773 3.57244C226.659 3.82244 226.602 4.12784 226.602 4.48864V10.7273ZM217.7 10.7273H216.643V4.94886C216.643 4.35227 216.784 3.8196 217.065 3.35085C217.344 2.88494 217.737 2.51705 218.246 2.24716C218.754 1.98011 219.351 1.84659 220.036 1.84659C220.72 1.84659 221.317 1.98011 221.825 2.24716C222.334 2.51705 222.729 2.88494 223.01 3.35085C223.288 3.8196 223.428 4.35227 223.428 4.94886V10.7273H222.371V5.03409C222.371 4.60795 222.277 4.22869 222.089 3.89631C221.902 3.56676 221.635 3.30682 221.288 3.11648C220.939 2.92898 220.521 2.83523 220.036 2.83523C219.55 2.83523 219.132 2.92898 218.783 3.11648C218.433 3.30682 218.166 3.56676 217.982 3.89631C217.794 4.22869 217.7 4.60795 217.7 5.03409V10.7273ZM214.533 2V10.7273H213.476V2.9375H209.419V2H214.533Z" fill="white"/>
<path d="M47.6277 103.779L46.997 104.871L39.2403 103.818L39.1892 103.906L43.98 110.097L43.3493 111.189L35.7913 106.826L36.2856 105.969L42.0279 109.285L42.0705 109.211L37.6918 103.534L38.1691 102.707L45.2751 103.661L45.3177 103.587L39.5754 100.271L40.0697 99.4152L47.6277 103.779ZM34.5528 108.971L35.1068 108.011L41.0625 115.15L40.5171 116.095L31.3568 114.506L31.9108 113.547L39.5771 114.962L39.6112 114.903L34.5528 108.971ZM37.3006 111.03L35.0677 114.897L34.2558 114.428L36.4887 110.561L37.3006 111.03ZM39.0554 118.626L38.4503 119.675L33.712 119.734L33.6609 119.822L35.9787 123.955L35.3736 125.004L32.507 119.707L29.3923 117.909L29.9207 116.994L33.0354 118.792L39.0554 118.626Z" fill="white"/>
<path d="M3 207.415V206.307L11.7273 209.511V210.602L3 213.807V212.699L10.3466 210.091V210.023L3 207.415ZM6.40909 207.824V212.29H5.47159V207.824H6.40909ZM3 215.166H11.7273V218.115C11.7273 218.8 11.6037 219.359 11.3565 219.794C11.1122 220.232 10.7812 220.555 10.3636 220.766C9.94602 220.976 9.48011 221.081 8.96591 221.081C8.4517 221.081 7.98438 220.976 7.56392 220.766C7.14347 220.558 6.80824 220.237 6.55824 219.803C6.31108 219.368 6.1875 218.811 6.1875 218.132V216.018H7.125V218.098C7.125 218.567 7.20597 218.943 7.3679 219.227C7.52983 219.511 7.74858 219.717 8.02415 219.845C8.30256 219.976 8.61648 220.041 8.96591 220.041C9.31534 220.041 9.62784 219.976 9.90341 219.845C10.179 219.717 10.3949 219.51 10.5511 219.223C10.7102 218.936 10.7898 218.555 10.7898 218.081V216.223H3V215.166ZM3 222.783H11.7273L11.7273 225.732C11.7273 226.414 11.6108 226.974 11.3778 227.411C11.1477 227.849 10.831 228.173 10.4276 228.383C10.0241 228.593 9.56534 228.698 9.05114 228.698C8.53693 228.698 8.08097 228.593 7.68324 228.383C7.28551 228.173 6.97301 227.85 6.74574 227.415C6.52131 226.981 6.40909 226.425 6.40909 225.749V223.363H7.36364V225.715C7.36364 226.181 7.43182 226.556 7.56818 226.84C7.70455 227.127 7.89773 227.335 8.14773 227.462C8.40057 227.593 8.7017 227.658 9.05114 227.658C9.40057 227.658 9.70597 227.593 9.96733 227.462C10.2287 227.332 10.4304 227.123 10.5724 226.836C10.7173 226.549 10.7898 226.17 10.7898 225.698V223.84H3V222.783ZM6.92045 226.891L3 229.039V227.812L6.92045 225.698V226.891Z" fill="white"/>
<path d="M29.6845 314.552L30.3152 315.644L25.5244 321.835L25.5755 321.923L33.3323 320.87L33.9629 321.962L26.4049 326.326L25.9106 325.469L31.6529 322.154L31.6103 322.08L24.5043 323.034L24.0271 322.207L28.4058 316.53L28.3631 316.456L22.6208 319.771L22.1265 318.915L29.6845 314.552ZM27.6434 328.471L27.0894 327.511L36.2497 325.923L36.7951 326.868L30.8394 334.006L30.2854 333.047L35.3438 327.115L35.3097 327.056L27.6434 328.471ZM30.8003 327.12L33.0332 330.988L32.2213 331.457L29.9884 327.589L30.8003 327.12ZM31.5191 335.184L39.0771 330.82L40.5515 333.374C40.8925 333.964 41.0714 334.507 41.0884 335.003C41.1079 335.497 40.9955 335.935 40.7512 336.319C40.507 336.703 40.1622 337.023 39.7169 337.28C39.2716 337.538 38.8241 337.674 38.3746 337.691C37.925 337.708 37.4932 337.585 37.079 337.322C36.6673 337.058 36.2925 336.633 35.9544 336.048L34.7612 333.981L35.5879 333.504L36.764 335.541C36.997 335.944 37.2435 336.235 37.5036 336.413C37.7652 336.593 38.0362 336.676 38.3166 336.662C38.6009 336.649 38.8944 336.555 39.197 336.38C39.4996 336.205 39.7314 335.996 39.8924 335.752C40.0534 335.508 40.1237 335.227 40.1033 334.907C40.0853 334.586 39.9584 334.221 39.7226 333.813L38.7936 332.204L32.0475 336.099L31.5191 335.184ZM36.9683 336.781L34.6469 340.601L34.0333 339.538L36.3717 335.748L36.9683 336.781Z" fill="white"/>
<path d="M111.206 417.176L115.57 409.617L120.101 412.234L119.633 413.046L116.016 410.958L114.542 413.512L117.819 415.404L117.35 416.216L114.073 414.323L112.121 417.704L111.206 417.176ZM117.305 420.697L121.669 413.139L126.23 415.772L125.762 416.584L122.115 414.479L120.641 417.033L124.051 419.002L123.582 419.814L120.172 417.845L118.689 420.414L122.395 422.553L121.926 423.365L117.305 420.697ZM123.516 424.283L127.88 416.725L130.522 418.25C131.049 418.554 131.431 418.896 131.667 419.276C131.906 419.653 132.02 420.042 132.012 420.444C132.004 420.843 131.894 421.227 131.681 421.596C131.493 421.921 131.281 422.156 131.043 422.301C130.808 422.447 130.561 422.527 130.303 422.542C130.047 422.559 129.794 422.534 129.544 422.468L129.501 422.542C129.724 422.69 129.909 422.906 130.058 423.188C130.206 423.471 130.28 423.795 130.278 424.162C130.277 424.528 130.161 424.911 129.931 425.309C129.712 425.688 129.429 425.979 129.082 426.183C128.735 426.386 128.325 426.469 127.851 426.431C127.377 426.394 126.843 426.203 126.247 425.86L123.516 424.283ZM124.9 423.999L126.716 425.048C127.314 425.393 127.805 425.522 128.19 425.436C128.578 425.349 128.868 425.139 129.06 424.807C129.207 424.551 129.279 424.277 129.273 423.985C129.269 423.691 129.184 423.409 129.018 423.139C128.854 422.867 128.607 422.636 128.277 422.446L126.417 421.372L124.9 423.999ZM126.878 420.575L128.575 421.555C128.851 421.714 129.131 421.803 129.414 421.823C129.701 421.844 129.966 421.794 130.21 421.672C130.457 421.552 130.657 421.359 130.81 421.093C131.002 420.761 131.049 420.413 130.951 420.048C130.855 419.681 130.556 419.352 130.054 419.062L128.326 418.065L126.878 420.575Z" fill="white"/>
<path d="M325.248 427.017L322.915 428.364L318.552 420.806L320.987 419.4C321.72 418.976 322.435 418.765 323.131 418.767C323.826 418.766 324.475 418.967 325.079 419.37C325.681 419.77 326.207 420.362 326.659 421.144C327.114 421.931 327.365 422.69 327.412 423.42C327.459 424.148 327.302 424.819 326.941 425.434C326.58 426.046 326.015 426.574 325.248 427.017ZM323.362 427.024L324.72 426.239C325.345 425.879 325.793 425.459 326.065 424.981C326.336 424.502 326.444 423.982 326.389 423.421C326.334 422.859 326.129 422.27 325.773 421.655C325.421 421.045 325.018 420.577 324.565 420.252C324.11 419.924 323.616 419.757 323.084 419.749C322.55 419.739 321.987 419.905 321.397 420.246L319.936 421.089L323.362 427.024ZM330.385 424.051L326.021 416.493L330.582 413.86L331.051 414.672L327.405 416.777L328.879 419.331L332.289 417.362L332.758 418.174L329.348 420.143L330.831 422.711L334.536 420.572L335.005 421.384L330.385 424.051ZM339.678 411.758L338.762 412.286C338.556 412.054 338.328 411.878 338.078 411.757C337.83 411.634 337.571 411.56 337.301 411.536C337.032 411.508 336.762 411.526 336.491 411.59C336.22 411.655 335.959 411.76 335.708 411.905C335.25 412.169 334.902 412.524 334.664 412.97C334.429 413.414 334.331 413.924 334.372 414.501C334.416 415.076 334.627 415.691 335.004 416.346C335.382 417 335.809 417.49 336.286 417.815C336.765 418.139 337.255 418.31 337.758 418.328C338.263 418.345 338.744 418.221 339.202 417.957C339.453 417.812 339.674 417.638 339.866 417.436C340.057 417.234 340.209 417.01 340.32 416.765C340.432 416.517 340.497 416.254 340.515 415.978C340.534 415.699 340.495 415.413 340.399 415.121L341.314 414.592C341.468 415.018 341.542 415.436 341.536 415.847C341.53 416.257 341.454 416.647 341.307 417.017C341.158 417.385 340.947 417.722 340.674 418.027C340.404 418.331 340.078 418.593 339.696 418.813C339.052 419.185 338.388 419.359 337.704 419.334C337.02 419.308 336.367 419.089 335.744 418.674C335.121 418.26 334.579 417.654 334.119 416.857C333.658 416.06 333.405 415.288 333.357 414.541C333.31 413.794 333.446 413.118 333.766 412.514C334.086 411.909 334.569 411.421 335.213 411.048C335.595 410.828 335.985 410.677 336.383 410.594C336.784 410.511 337.182 410.498 337.576 410.555C337.969 410.611 338.344 410.738 338.702 410.938C339.059 411.136 339.384 411.409 339.678 411.758Z" fill="white"/>
<path d="M408.823 339.245L416.381 343.608L415.87 344.494L407.557 345.186L407.515 345.26L413.449 348.686L412.921 349.601L405.363 345.238L405.874 344.352L414.209 343.653L414.252 343.58L408.303 340.145L408.823 339.245ZM417.341 333.218C418.138 333.678 418.744 334.22 419.158 334.843C419.573 335.466 419.793 336.119 419.818 336.803C419.843 337.487 419.669 338.151 419.297 338.795C418.925 339.44 418.437 339.922 417.832 340.243C417.227 340.563 416.552 340.699 415.805 340.652C415.058 340.604 414.286 340.35 413.489 339.89C412.692 339.43 412.086 338.888 411.671 338.265C411.257 337.642 411.037 336.989 411.012 336.305C410.987 335.621 411.16 334.957 411.533 334.313C411.905 333.668 412.393 333.186 412.998 332.866C413.603 332.545 414.278 332.409 415.025 332.456C415.772 332.504 416.544 332.758 417.341 333.218ZM416.83 334.104C416.175 333.726 415.56 333.516 414.983 333.475C414.408 333.432 413.897 333.529 413.452 333.767C413.007 334.003 412.653 334.349 412.389 334.807C412.125 335.264 412.001 335.746 412.018 336.251C412.036 336.753 412.207 337.244 412.531 337.723C412.856 338.199 413.346 338.627 414 339.004C414.655 339.382 415.269 339.593 415.845 339.636C416.421 339.677 416.932 339.58 417.376 339.345C417.822 339.107 418.177 338.759 418.441 338.301C418.705 337.844 418.828 337.363 418.81 336.861C418.793 336.356 418.622 335.865 418.297 335.389C417.973 334.91 417.484 334.481 416.83 334.104ZM414.424 329.542L422.082 330.972L422.133 330.883L417.067 324.966L417.62 324.007L423.576 331.145L423.031 332.09L413.87 330.502L414.424 329.542Z" fill="white"/>
<path d="M135.706 32.355L134.79 32.8834L131.671 27.4806C131.393 26.9984 131.245 26.5376 131.227 26.0982C131.21 25.6589 131.312 25.2589 131.533 24.8981C131.755 24.5373 132.084 24.2305 132.522 23.9777C132.936 23.7391 133.347 23.6017 133.756 23.5657C134.166 23.5322 134.545 23.6024 134.891 23.7763C135.238 23.9503 135.522 24.2304 135.745 24.6167L134.845 25.1365C134.721 24.9225 134.56 24.7661 134.362 24.6672C134.163 24.5723 133.944 24.5345 133.706 24.5539C133.468 24.5732 133.23 24.6518 132.991 24.7896C132.728 24.9416 132.536 25.1262 132.415 25.3435C132.295 25.5607 132.248 25.8041 132.276 26.0735C132.303 26.3468 132.406 26.6397 132.586 26.9522L135.706 32.355ZM127.996 36.806L127.081 37.3344L124.192 32.3301C123.894 31.8135 123.749 31.2819 123.758 30.7353C123.766 30.1926 123.923 29.6772 124.229 29.1893C124.536 28.7037 124.985 28.2898 125.578 27.9475C126.171 27.6051 126.755 27.4225 127.329 27.3995C127.904 27.379 128.43 27.5001 128.906 27.763C129.382 28.0297 129.769 28.4214 130.067 28.9381L132.956 33.9423L132.041 34.4708L129.195 29.5403C128.981 29.1713 128.711 28.8897 128.382 28.6956C128.055 28.5039 127.694 28.4123 127.298 28.4208C126.902 28.4331 126.493 28.5608 126.073 28.8037C125.652 29.0466 125.337 29.3365 125.128 29.6736C124.921 30.0132 124.82 30.3718 124.824 30.7496C124.828 31.1312 124.937 31.5065 125.15 31.8755L127.996 36.806ZM119.26 41.8498L114.897 34.2918L115.782 33.7804L123.327 37.3368L123.401 37.2942L119.975 31.36L120.89 30.8316L125.253 38.3896L124.368 38.901L116.8 35.3383L116.726 35.3809L120.161 41.33L119.26 41.8498Z" fill="white"/>
<path d="M419.309 123.643C418.961 123.903 418.774 124.25 418.749 124.684C418.724 125.119 418.844 125.565 419.108 126.022C419.301 126.357 419.525 126.618 419.778 126.807C420.029 126.993 420.29 127.101 420.561 127.132C420.83 127.16 421.085 127.105 421.326 126.966C421.528 126.849 421.673 126.701 421.763 126.521C421.849 126.341 421.896 126.146 421.904 125.938C421.909 125.732 421.894 125.527 421.859 125.324C421.822 125.123 421.781 124.942 421.737 124.78L421.5 123.893C421.439 123.666 421.383 123.406 421.335 123.113C421.286 122.816 421.276 122.512 421.305 122.2C421.331 121.887 421.424 121.587 421.584 121.301C421.743 121.015 422 120.77 422.355 120.566C422.763 120.33 423.194 120.224 423.647 120.248C424.099 120.269 424.54 120.427 424.97 120.724C425.399 121.017 425.781 121.455 426.116 122.035C426.429 122.576 426.612 123.096 426.666 123.593C426.718 124.087 426.654 124.538 426.472 124.944C426.289 125.349 425.999 125.685 425.603 125.953L425.057 125.008C425.329 124.819 425.509 124.587 425.6 124.311C425.686 124.035 425.7 123.742 425.642 123.431C425.58 123.119 425.463 122.813 425.289 122.513C425.088 122.163 424.85 121.882 424.576 121.669C424.3 121.458 424.013 121.33 423.715 121.286C423.415 121.243 423.127 121.301 422.851 121.46C422.6 121.605 422.437 121.793 422.36 122.024C422.284 122.255 422.262 122.513 422.296 122.799C422.33 123.085 422.386 123.382 422.466 123.69L422.737 124.773C422.908 125.462 422.936 126.069 422.82 126.596C422.704 127.122 422.391 127.532 421.882 127.826C421.458 128.07 421.023 128.169 420.576 128.122C420.125 128.074 419.7 127.906 419.301 127.618C418.898 127.329 418.558 126.944 418.279 126.461C417.998 125.974 417.835 125.491 417.791 125.011C417.745 124.533 417.808 124.096 417.98 123.702C418.151 123.304 418.423 122.99 418.798 122.757L419.309 123.643ZM423.538 117.876L415.98 122.24L413.346 117.678L414.158 117.21L416.263 120.856L418.817 119.381L416.848 115.971L417.66 115.503L419.629 118.913L422.197 117.43L420.058 113.725L420.87 113.256L423.538 117.876ZM419.952 111.665L412.394 116.029L410.919 113.475C410.577 112.882 410.404 112.336 410.401 111.836C410.394 111.335 410.518 110.889 410.775 110.498C411.032 110.107 411.382 109.783 411.828 109.526C412.273 109.269 412.73 109.126 413.2 109.098C413.667 109.067 414.118 109.178 414.552 109.429C414.983 109.682 415.369 110.102 415.708 110.69L416.765 112.521L415.953 112.99L414.914 111.189C414.679 110.783 414.421 110.497 414.139 110.332C413.856 110.167 413.564 110.098 413.261 110.125C412.955 110.151 412.65 110.252 412.348 110.426C412.045 110.601 411.807 110.814 411.634 111.065C411.459 111.313 411.376 111.601 411.384 111.927C411.39 112.255 411.511 112.625 411.748 113.036L412.677 114.645L419.423 110.75L419.952 111.665Z" fill="white"/>
<path d="M446.636 223.58C447.557 223.58 448.352 223.746 449.023 224.078C449.693 224.411 450.21 224.866 450.574 225.446C450.938 226.026 451.119 226.687 451.119 227.432C451.119 228.176 450.938 228.838 450.574 229.418C450.21 229.997 449.693 230.453 449.023 230.786C448.352 231.118 447.557 231.284 446.636 231.284C445.716 231.284 444.92 231.118 444.25 230.786C443.58 230.453 443.062 229.997 442.699 229.418C442.335 228.838 442.153 228.176 442.153 227.432C442.153 226.687 442.335 226.026 442.699 225.446C443.062 224.866 443.58 224.411 444.25 224.078C444.92 223.746 445.716 223.58 446.636 223.58ZM446.636 224.602C445.881 224.602 445.243 224.729 444.723 224.982C444.203 225.232 443.81 225.571 443.543 226C443.276 226.426 443.142 226.903 443.142 227.432C443.142 227.96 443.276 228.439 443.543 228.868C443.81 229.294 444.203 229.634 444.723 229.886C445.243 230.136 445.881 230.261 446.636 230.261C447.392 230.261 448.03 230.136 448.55 229.886C449.07 229.634 449.463 229.294 449.73 228.868C449.997 228.439 450.131 227.96 450.131 227.432C450.131 226.903 449.997 226.426 449.73 226C449.463 225.571 449.07 225.232 448.55 224.982C448.03 224.729 447.392 224.602 446.636 224.602ZM445 214.78V215.837C444.696 215.899 444.429 216.009 444.199 216.165C443.969 216.318 443.776 216.506 443.619 216.727C443.46 216.946 443.341 217.189 443.261 217.456C443.182 217.723 443.142 218.001 443.142 218.291C443.142 218.82 443.276 219.298 443.543 219.727C443.81 220.153 444.203 220.493 444.723 220.746C445.243 220.996 445.881 221.121 446.636 221.121C447.392 221.121 448.03 220.996 448.55 220.746C449.07 220.493 449.463 220.153 449.73 219.727C449.997 219.298 450.131 218.82 450.131 218.291C450.131 218.001 450.091 217.723 450.011 217.456C449.932 217.189 449.814 216.946 449.658 216.727C449.499 216.506 449.304 216.318 449.074 216.165C448.841 216.009 448.574 215.899 448.273 215.837V214.78C448.719 214.859 449.118 215.004 449.47 215.214C449.822 215.425 450.122 215.686 450.369 215.999C450.614 216.311 450.8 216.662 450.928 217.051C451.055 217.437 451.119 217.851 451.119 218.291C451.119 219.036 450.938 219.697 450.574 220.277C450.21 220.857 449.693 221.312 449.023 221.645C448.352 221.977 447.557 222.143 446.636 222.143C445.716 222.143 444.92 221.977 444.25 221.645C443.58 221.312 443.062 220.857 442.699 220.277C442.335 219.697 442.153 219.036 442.153 218.291C442.153 217.851 442.217 217.437 442.345 217.051C442.473 216.662 442.661 216.311 442.908 215.999C443.152 215.686 443.45 215.425 443.803 215.214C444.152 215.004 444.551 214.859 445 214.78ZM443.21 213.549H442.273V207.004H443.21V209.748H451V210.805H443.21V213.549Z" fill="white"/>
<path d="M342.291 34.8907L343.251 35.4447L336.112 41.4004L335.167 40.855L336.756 31.6947L337.715 32.2487L336.301 39.915L336.36 39.9491L342.291 34.8907ZM340.233 37.6385L336.365 35.4056L336.834 34.5937L340.701 36.8266L340.233 37.6385ZM326.255 35.7094L325.34 35.181L328.229 30.1767C328.527 29.6601 328.915 29.2691 329.393 29.0037C329.867 28.7395 330.392 28.6176 330.967 28.6381C331.541 28.6611 332.125 28.8438 332.718 29.1861C333.311 29.5284 333.76 29.9424 334.067 30.4279C334.373 30.9159 334.531 31.4319 334.541 31.9761C334.548 32.5212 334.402 33.0521 334.104 33.5688L331.215 38.573L330.3 38.0446L333.146 33.1142C333.359 32.7451 333.468 32.3698 333.472 31.9882C333.474 31.6091 333.373 31.2504 333.168 30.9123C332.959 30.5752 332.644 30.2852 332.223 30.0423C331.803 29.7994 331.394 29.6718 330.998 29.6594C330.6 29.6496 330.239 29.7412 329.914 29.9342C329.585 30.1283 329.315 30.4099 329.101 30.7789L326.255 35.7094ZM319.709 28.7809C319.647 29.0763 319.625 29.3607 319.644 29.6343C319.66 29.9088 319.718 30.1688 319.819 30.4141C319.918 30.6581 320.06 30.883 320.246 31.0889C320.432 31.2948 320.662 31.4766 320.935 31.6343C321.383 31.8928 321.857 32.0122 322.357 31.9926C322.857 31.973 323.345 31.8006 323.822 31.4753C324.298 31.1501 324.725 30.6603 325.103 30.0058C325.481 29.3514 325.691 28.7358 325.732 28.1592C325.773 27.5825 325.673 27.0706 325.432 26.6234C325.192 26.1763 324.838 25.8177 324.371 25.5478C323.937 25.2978 323.503 25.1699 323.067 25.1641C322.627 25.1593 322.216 25.2734 321.836 25.5064C321.451 25.7405 321.126 26.0887 320.858 26.5513L320.612 26.3303L322.885 27.6428L322.417 28.4547L319.538 26.7928L320.007 25.9809C320.366 25.3584 320.812 24.8938 321.343 24.5872C321.872 24.2791 322.442 24.1326 323.053 24.1476C323.661 24.1637 324.265 24.3451 324.865 24.6917C325.534 25.078 326.031 25.575 326.356 26.1825C326.679 26.7886 326.814 27.4637 326.762 28.2076C326.707 28.9502 326.449 29.7201 325.989 30.5172C325.644 31.115 325.254 31.6065 324.818 31.9914C324.379 32.3774 323.914 32.6537 323.424 32.8203C322.934 32.987 322.436 33.0436 321.929 32.9902C321.422 32.9369 320.926 32.7703 320.441 32.4905C320.042 32.2603 319.706 31.9856 319.431 31.6662C319.152 31.3478 318.941 31.001 318.796 30.6258C318.648 30.2516 318.571 29.8606 318.563 29.4529C318.554 29.0476 318.621 28.6418 318.764 28.2355L319.709 28.7809Z" fill="white"/>
</svg>
